<svg width="100" height="73" viewBox="0 0 100 73" fill="none" xmlns="http://www.w3.org/2000/svg">
<rect x="0.527539" y="57.6482" width="31.0967" height="46.3003" rx="5.5" transform="rotate(-86.7504 0.527539 57.6482)" fill="#FFE9E1" stroke="#F57040"/>
<rect x="2.91413" y="47.6859" width="31.0967" height="46.3003" rx="5.5" transform="rotate(-75 2.91413 47.6859)" fill="#FFE9E1" stroke="#F57040"/>
<rect x="6.25528" y="35.7713" width="31.0967" height="46.3003" rx="5.5" transform="rotate(-60 6.25528 35.7713)" fill="#FFE9E1" stroke="#F57040"/>
<rect x="12.6866" y="24.9222" width="31.0967" height="46.3003" rx="5.5" transform="rotate(-45 12.6866 24.9222)" fill="#FFE9E1" stroke="#F57040"/>
<rect x="20.9369" y="16.2314" width="31.0967" height="46.3003" rx="5.5" transform="rotate(-30 20.9369 16.2314)" fill="#FFE9E1" stroke="#F57040"/>
<rect x="32.1798" y="10.7659" width="31.0967" height="46.3003" rx="5.5" transform="rotate(-15 32.1798 10.7659)" fill="#FFE9E1" stroke="#F57040"/>
<rect x="43.5908" y="7.27661" width="31.157" height="45.9493" rx="5.5" fill="#FFE9E1" stroke="#F57040"/>
<rect x="55.2129" y="8.52936" width="31.157" height="45.9493" rx="5.5" transform="rotate(15 55.2129 8.52936)" fill="#FFE9E1" stroke="#F57040"/>
<rect x="66.8119" y="11.5693" width="31.157" height="45.9493" rx="5.5" transform="rotate(30 66.8119 11.5693)" fill="#FFE9E1" stroke="#F57040"/>
<rect x="77.2617" y="17.1392" width="31.157" height="45.9493" rx="5.5" transform="rotate(45 77.2617 17.1392)" fill="#FFE9E1" stroke="#F57040"/>
</svg>
