<svg width="186" height="131" viewBox="0 0 186 131" fill="none" xmlns="http://www.w3.org/2000/svg">
<mask id="mask0" style="mask-type:alpha" maskUnits="userSpaceOnUse" x="0" y="0" width="186" height="131">
<rect width="186" height="130.558" fill="#C4C4C4"/>
</mask>
<g mask="url(#mask0)">
<path d="M136.063 130.96C135.832 131.035 135.598 131.108 135.36 131.181C135.508 131.072 135.76 131.005 136.063 130.96C138.69 130.102 140.86 129.033 143.017 126.952C146.877 123.23 149.324 119.157 151.781 114.234C154.784 108.216 154.723 100.383 153.874 93.7193C153.228 88.6486 151.41 83.8662 150.285 78.9197C149.485 75.3989 148.427 72.0014 147.534 68.5137C146.584 64.8038 145.36 61.5017 145.32 57.5791C145.278 53.4152 145.619 50.6057 147.534 46.9749C151.939 38.6194 164.652 37.1346 171.91 40.7974C184.269 47.0341 185.747 62.0196 186.177 75.451C186.437 83.5811 184.032 92.1251 180.793 99.3683C178.132 105.32 175.168 111.45 170.145 115.357C165.656 118.85 160.717 121.563 155.968 124.574C152.128 127.009 148.215 128.126 143.974 129.232C142.355 129.654 140.621 130.652 138.71 130.652C138.24 130.883 136.937 130.829 136.063 130.96Z" fill="#FFE9E1"/>
<path d="M135.36 131.181C138.309 130.282 140.671 129.216 143.017 126.952C146.877 123.23 149.324 119.157 151.781 114.234C154.784 108.216 154.723 100.383 153.874 93.7193C153.228 88.6486 151.41 83.8662 150.285 78.9197C149.485 75.3989 148.427 72.0014 147.534 68.5137C146.584 64.8038 145.36 61.5017 145.32 57.5791C145.278 53.4152 145.619 50.6057 147.534 46.9749C151.939 38.6194 164.652 37.1346 171.91 40.7974C184.269 47.0341 185.747 62.0196 186.177 75.451C186.437 83.5811 184.032 92.1251 180.793 99.3683C178.132 105.32 175.168 111.45 170.145 115.357C165.656 118.85 160.717 121.563 155.968 124.574C152.128 127.009 148.215 128.126 143.974 129.232C142.355 129.654 140.621 130.652 138.71 130.652C138.076 130.963 135.935 130.758 135.36 131.181Z" stroke="#F57040" stroke-linecap="round" stroke-linejoin="round"/>
<path d="M36.717 84.5168C38.7609 79.0028 43.4265 74.8759 49.1488 73.5205L98.4796 61.8355C106.864 59.8495 115.452 64.2326 118.762 72.1872L138.274 119.071C142.951 130.309 135.067 142.785 122.909 143.384L39.4953 147.493C26.895 148.113 17.7619 135.653 22.1467 123.824L36.717 84.5168Z" fill="#FFE9E1" stroke="#F57040"/>
<path d="M53.5447 89.7703C55.3423 83.0744 60.9072 78.0603 67.7536 76.9679L85.5337 74.131C94.3896 72.718 102.89 78.1974 105.259 86.8468L115.7 124.964C118.983 136.946 109.139 148.459 96.7927 147.08L60.1979 142.99C49.5018 141.795 42.381 131.356 45.1714 120.961L53.5447 89.7703Z" fill="white" stroke="#F57040"/>
<g filter="url(#filter0_d)">
<path d="M64.7605 16.9639L33.6608 40.261C33.6608 40.261 25.2933 21.4017 25.8129 13.7804C26.3325 6.15902 31.6859 1.42341 41.1232 3.24034C50.5604 5.05727 64.7605 16.9639 64.7605 16.9639Z" fill="#FFE9E1" stroke="#F57040"/>
<path d="M126.166 41.7085L95.6553 17.6432C95.6553 17.6432 111.684 4.65011 119.17 3.17609C126.656 1.70208 132.607 5.65645 133.294 15.2643C133.981 24.8722 126.166 41.7085 126.166 41.7085Z" fill="#FFE9E1" stroke="#F57040"/>
<path d="M121.855 32.7914L104.572 19.7626C104.572 19.7626 113.317 11.7496 118.121 10.8116C122.925 9.87354 126.778 12.9661 127.002 17.1095C127.225 21.2529 121.855 32.7914 121.855 32.7914Z" fill="#F57040"/>
<path d="M55.333 18.6301L38.257 31.9039C38.257 31.9039 32.7571 21.399 33.0893 16.5267C33.4214 11.6543 37.4103 8.74367 41.4795 9.6029C45.5486 10.4621 55.333 18.6301 55.333 18.6301Z" fill="#F57040"/>
<path d="M76.365 94.7562L29.1898 76.0411C24.3384 74.1165 21.4054 69.0326 22.7197 63.9815C25.3283 53.9569 29.2077 46.5835 35.7537 35.6597C42.0749 25.1109 53.0027 16.5854 63.5703 12.6296C73.5697 8.62832 88.2052 9.03753 97.5456 12.6296C106.283 15.9899 120.736 26.2704 126.317 35.6597C132.319 45.7586 135.438 53.78 138.216 63.2561C139.793 68.6355 136.88 74.2791 131.659 76.3206L84.4632 94.7761C81.8586 95.7946 78.9646 95.7875 76.365 94.7562Z" fill="#FFE9E1" stroke="#F57040"/>
<path d="M23.7441 60.4052C26.688 52.0999 28.5593 47.7204 33.3061 39.9824H52.0771C57.7167 39.9824 62.2885 44.5542 62.2885 50.1938C62.2885 55.8334 57.7167 60.4052 52.0771 60.4052H23.7441Z" fill="#F57040"/>
<path d="M137.364 60.4053C134.84 51.8777 133.248 47.2242 128.518 39.4072L109.071 39.6474C103.389 39.7176 98.8194 44.3436 98.8194 50.0259C98.8194 55.7583 103.466 60.4053 109.199 60.4053H137.364Z" fill="#F57040"/>
<path d="M95.6557 11.9683C87.8745 9.70427 76.5544 8.53796 66.0283 11.7853C69.1291 20.6447 74.0817 35.2944 74.0817 35.2944C76.078 40.4856 83.9499 40.3027 86.5134 35.2944L95.6557 11.9683Z" fill="#F57040"/>
<path d="M80.4901 96.3608L55.4401 86.298C52.4624 79.2142 57.1681 71.7244 63.2823 65.8097C70.9202 58.4212 91.2192 58.7888 99.5615 65.8097C105.901 71.1447 109.291 78.8578 107.04 86.298L80.4901 96.3608Z" fill="white" stroke="#F57040"/>
<path d="M76.5964 62.1274C78.7126 61.7607 80.6173 61.7527 82.7735 62.0834C85.0364 62.4304 86.0094 65.1104 84.5004 66.8322C83.6112 67.8467 82.7074 68.7096 81.6325 69.5854C80.5135 70.4971 78.9027 70.4937 77.7899 69.5745C76.6047 68.5955 75.6761 67.6607 74.8265 66.5598C73.537 64.8889 74.5168 62.4877 76.5964 62.1274Z" fill="#F57040"/>
<path d="M47.8484 54.3417C49.2265 55.2205 50.864 54.7464 52.1186 53.8258C53.6722 52.6857 54.532 50.4131 54.3191 48.5063C54.1525 47.0136 53.0815 45.726 51.9879 44.7882C50.9702 43.9154 49.4719 43.4403 48.1564 43.3666C46.6727 43.2835 45.245 44.1127 44.1142 44.9967C43.3629 45.584 42.0814 46.4947 41.7955 47.4543C41.4644 48.5656 41.6079 49.7794 41.973 50.8586C42.1963 51.5188 42.5055 52.4555 43.1009 52.8722C43.3986 53.0805 43.6198 53.3993 43.9337 53.5853C44.1664 53.7231 44.4007 53.809 44.6237 53.9713C45.054 54.2843 45.6861 54.3686 46.1521 54.6404C46.2916 54.7218 46.9847 54.9442 47.0757 54.8916C47.2095 54.8144 48.3734 54.8204 48.3494 54.71C48.2715 54.3514 47.9399 53.9608 47.7573 53.6445C47.5296 53.2501 47.3893 52.8273 47.1608 52.4315C46.7908 51.7906 46.3949 50.9998 46.2083 50.2822C46.0493 49.671 45.7849 49.2284 45.9368 48.5932C46.1057 47.8874 46.2864 47.3694 46.7253 46.7422C47.1481 46.138 47.7335 45.9083 48.2803 45.4695C48.4498 45.3335 48.7047 45.1887 48.854 45.0345C48.9216 44.9646 48.7192 44.6491 48.6317 44.6495C47.9605 44.6525 47.4477 45.0216 46.866 45.3574C46.4414 45.6026 46.009 46.0518 45.6712 46.4049C45.3939 46.6946 45.039 46.9616 44.8326 47.3101C44.0055 48.7063 44.6234 50.5541 45.3589 51.828C45.507 52.0846 46.0996 52.9311 45.6616 52.1724C45.3494 51.6318 44.8994 51.212 44.5843 50.6661C44.3228 50.2133 44.0614 49.7606 43.8 49.3078C43.4617 48.7218 44.0275 47.7006 44.4191 47.2431C44.8283 46.765 44.6615 46.8979 44.6151 47.303C44.5621 47.7666 44.3525 48.1916 44.3659 48.6696C44.3885 49.4736 44.3572 50.2383 44.405 51.0349C44.4253 51.3727 44.7079 51.7401 44.6574 52.0716C44.6307 52.2467 44.0581 51.3732 43.9984 51.2697C43.9002 51.0997 43.7035 50.8674 43.7001 50.6632C43.6948 50.342 43.9153 49.3726 43.6354 50.1815C43.4966 50.5825 43.5306 52.078 43.0054 51.1682C42.716 50.6669 42.7756 50.3602 42.7428 49.8143" stroke="white" stroke-width="2" stroke-linecap="round" stroke-linejoin="round"/>
<path d="M110.705 55.3377C112.078 55.485 113.368 55.0402 114.64 54.5627C115.89 54.0933 116.603 53.2457 117.299 52.1747C117.918 51.2217 118.053 50.4528 117.763 49.3716C117.488 48.343 117.137 47.2427 116.279 46.5322C114.773 45.2866 112.982 44.405 110.957 44.6589C109.737 44.8119 108.81 45.211 107.846 45.9786C106.762 46.8417 106.29 48.1739 105.549 49.2935C104.986 50.1438 105.019 50.7887 105.269 51.7215C105.582 52.8897 106.283 53.4558 107.226 54.1652C107.633 54.4707 108.464 54.6739 108.973 54.778C109.528 54.8915 110.138 54.9714 110.685 54.9915C110.818 54.9964 111.791 54.9741 111.779 54.8483C111.704 54.0738 110.945 53.1962 110.674 52.4606C110.384 51.6718 110.136 50.8734 109.94 50.0508C109.802 49.4707 110.243 48.4595 110.518 47.9619C111.007 47.0795 111.938 46.3401 112.764 45.845C112.925 45.7485 112.847 45.6419 112.676 45.6877C112.193 45.8171 111.761 46.1229 111.332 46.3683C110.147 47.0469 109.315 47.9122 108.88 49.2181C108.582 50.1117 108.549 51.1668 108.726 52.0984C108.858 52.7969 109.096 53.1448 109.51 53.6567C109.748 53.9511 109.649 53.4951 109.566 53.3625C109.252 52.859 108.882 52.3896 108.571 51.8865C108.065 51.07 107.673 50.4169 108.169 49.5015C108.532 48.8325 109.071 48.0562 109.681 47.5762C109.704 47.5581 109.65 47.8583 109.642 47.8967C109.594 48.1482 109.564 48.3784 109.463 48.617C109.261 49.0953 108.929 49.4612 108.7 49.9178C108.362 50.5911 107.949 51.5428 108.13 52.3253C108.409 53.5316 107.381 51.9412 107.202 51.643C106.752 50.8915 106.239 50.0064 106.522 49.1051C106.88 47.9695 107.616 47.5552 108.68 47.0841C108.954 46.963 110.207 46.3716 109.478 46.9374C109.105 47.2273 108.562 47.2814 108.154 47.551" stroke="white" stroke-width="2" stroke-linecap="round" stroke-linejoin="round"/>
</g>
<path d="M176.156 61.1547C158.491 64.5861 157.347 62.2985 145.909 62.2985C145.915 62.3593 149.136 74.6176 149.214 74.6262C164.705 79.1731 172.745 78.079 185.942 69.6697C185.637 64.9583 185.337 62.3144 184.163 57.5962C181.24 59.6296 179.878 60.4317 176.156 61.1547Z" fill="#F57040"/>
<path d="M151.593 48.0817C150.044 47.8715 148.671 47.7037 147.307 46.8813C147.549 46.3859 148.369 45.4848 148.674 45.0154C149.055 44.4294 149.513 44.0586 149.968 43.5567C150.619 42.8379 151.491 42.2365 152.296 41.7002C153.001 41.2303 153.719 40.772 154.681 40.4201C155.091 40.1837 155.519 39.9383 155.982 39.8199C156.443 39.7016 156.831 39.3726 157.29 39.255C157.627 39.1686 157.959 39.078 158.293 38.9725C158.813 38.8083 159.366 38.7397 159.877 38.5802C160.902 38.2603 161.964 38.4782 163.011 38.4782C164.05 38.4782 165.133 38.5705 166.144 38.796C166.722 38.9248 167.309 39.0113 167.885 39.1295C168.415 39.2381 168.912 39.4687 169.431 39.5924C169.958 39.7179 170.508 39.941 171 40.173L171.023 40.1839C171.269 40.2999 171.568 40.4405 171.827 40.5103C172.103 40.5849 172.314 40.7449 172.584 40.8242C173.012 40.9496 173.427 41.3055 173.824 41.5146C174.234 41.731 174.8 42.0398 175.133 42.362C175.574 42.7897 176.018 43.1485 176.426 43.6173C176.743 43.9811 176.297 43.9253 176.181 44.1273C176.099 44.2703 175.928 44.3395 175.806 44.4647C175.641 44.6337 175.479 44.772 175.286 44.9041C174.758 45.2647 174.136 45.5222 173.533 45.7358C170.95 46.6513 168.252 47.5047 165.528 47.8149C164.203 47.9659 162.915 48.3293 161.58 48.4505C160.12 48.5829 158.677 48.6102 157.21 48.5211C155.327 48.4067 153.468 48.3362 151.593 48.0817Z" fill="#F57040"/>
<path d="M185.434 85.0474C172.207 87.1589 164.778 86.8742 151.882 84.7932L154.17 96.3583C164.73 100.51 170.928 100.6 182.13 96.2312C183.794 92.0585 184.397 89.5469 185.434 85.0474Z" fill="#F57040"/>
<path d="M176.283 108.305C167.724 107.954 162.78 107.364 154.17 105.127C153.792 108.096 153.487 109.697 152.518 112.499C159.068 115.448 162.892 116.504 170.564 115.04C173.395 112.619 174.542 111.109 176.283 108.305Z" fill="#F57040"/>
<path d="M68.2378 76.0427C70.3558 80.4155 75.368 80.8438 79.7231 81.2757C83.9061 81.6905 89.5888 81.0306 91.3056 76.567" stroke="#F57040" stroke-width="3" stroke-linecap="round"/>
</g>
<defs>
<filter id="filter0_d" x="11.9048" y="-2.64771" width="137.24" height="114.545" filterUnits="userSpaceOnUse" color-interpolation-filters="sRGB">
<feFlood flood-opacity="0" result="BackgroundImageFix"/>
<feColorMatrix in="SourceAlpha" type="matrix" values="0 0 0 0 0 0 0 0 0 0 0 0 0 0 0 0 0 0 127 0" result="hardAlpha"/>
<feOffset dy="5"/>
<feGaussianBlur stdDeviation="5"/>
<feColorMatrix type="matrix" values="0 0 0 0 0.94902 0 0 0 0 0.27451 0 0 0 0 0.270588 0 0 0 0.1 0"/>
<feBlend mode="normal" in2="BackgroundImageFix" result="effect1_dropShadow"/>
<feBlend mode="normal" in="SourceGraphic" in2="effect1_dropShadow" result="shape"/>
</filter>
</defs>
</svg>
