<svg width="111" height="32" viewBox="0 0 111 32" fill="none" xmlns="http://www.w3.org/2000/svg">
<path d="M41.9615 0C41.7249 0.000609062 41.4981 0.0948757 41.3308 0.262191C41.1635 0.429507 41.0692 0.656261 41.0686 0.89288V1.88728C41.0686 1.90343 41.0686 1.91958 41.0686 1.93803V5.82564C41.0644 7.14032 40.5401 8.3999 39.6102 9.32931C38.6804 10.2587 37.4205 10.7824 36.1059 10.7861H27.7954C26.4809 10.7824 25.2213 10.2586 24.2919 9.32917C23.3624 8.3997 22.8386 7.14011 22.8349 5.82564V1.93803C22.8349 1.89189 22.8349 1.84805 22.8349 1.80422V0.897495C22.8233 0.668237 22.724 0.452216 22.5576 0.294069C22.3912 0.135923 22.1705 0.0477388 21.9409 0.0477388C21.7114 0.0477388 21.4906 0.135923 21.3242 0.294069C21.1578 0.452216 21.0585 0.668237 21.0469 0.897495V5.26269C21.0469 5.58517 21.0469 5.43639 21.0469 5.76796C21.0518 7.42472 21.6313 9.49674 22.8028 10.6683C23.9743 11.8398 25.5618 12.5001 27.2186 12.5049H36.6042C38.2612 12.5007 39.849 11.8406 41.0207 10.6689C42.1923 9.49728 42.8524 7.90942 42.8567 6.25247C42.8567 6.14403 42.8567 6.0379 42.8567 5.93177C42.8567 5.90408 42.8567 5.87871 42.8567 5.85102V0.897495C42.857 0.779743 42.8341 0.663088 42.7892 0.554213C42.7444 0.445337 42.6785 0.34638 42.5953 0.26301C42.5122 0.179639 42.4134 0.113494 42.3046 0.0683621C42.1958 0.0232305 42.0792 -3.91084e-07 41.9615 0Z" fill="#F57040"/>
<path d="M43.4256 18.9487H32.5172C31.6042 18.9523 30.7296 19.3166 30.0839 19.9623C29.4383 20.6079 29.074 21.4825 29.0703 22.3956V30.6576C29.0715 30.892 29.1653 31.1164 29.3313 31.2819C29.4972 31.4475 29.7219 31.5407 29.9563 31.5413C30.1904 31.5407 30.4148 31.4474 30.5804 31.2818C30.746 31.1162 30.8393 30.8918 30.8399 30.6576V25.891H32.4042C32.4716 25.8899 32.5384 25.8791 32.6026 25.8587H45.1052V30.6576C45.1052 30.892 45.1983 31.1168 45.3641 31.2825C45.5298 31.4482 45.7545 31.5413 45.9889 31.5413C46.2233 31.5413 46.448 31.4482 46.6137 31.2825C46.7794 31.1168 46.8725 30.892 46.8725 30.6576V22.3956C46.8689 21.4825 46.5046 20.6079 45.8589 19.9623C45.2133 19.3166 44.3387 18.9523 43.4256 18.9487ZM45.1052 24.0983H30.8376V22.4671C30.8376 22.0051 31.0211 21.5621 31.3478 21.2354C31.6745 20.9087 32.1176 20.7252 32.5795 20.7252H43.4187C43.8646 20.7264 44.2919 20.9039 44.6075 21.219C44.923 21.5341 45.1011 21.9612 45.1029 22.4071L45.1052 24.0983Z" fill="#F57040"/>
<path d="M67.4627 18.9511H66.8813C66.8257 18.941 66.7694 18.9356 66.7129 18.9349H56.8404C56.7839 18.9355 56.7276 18.9409 56.672 18.9511H55.3731C54.4561 18.9541 53.5776 19.3197 52.9293 19.9681C52.2809 20.6164 51.9153 21.4949 51.9123 22.4119V22.4119C51.9134 22.5662 51.9242 22.7203 51.9446 22.8733C51.9243 22.9486 51.9135 23.0261 51.9123 23.104V30.6162C51.9061 30.7374 51.9247 30.8587 51.9668 30.9725C52.009 31.0863 52.0738 31.1904 52.1575 31.2784C52.2411 31.3663 52.3417 31.4364 52.4533 31.4843C52.5648 31.5321 52.6849 31.5568 52.8063 31.5568C52.9277 31.5568 53.0478 31.5321 53.1594 31.4843C53.2709 31.4364 53.3716 31.3663 53.4552 31.2784C53.5388 31.1904 53.6037 31.0863 53.6458 30.9725C53.688 30.8587 53.7065 30.7374 53.7004 30.6162V25.8749H63.9742L69.3984 31.3014C69.5661 31.4691 69.7935 31.5633 70.0306 31.5633C70.148 31.5633 70.2643 31.5402 70.3727 31.4952C70.4812 31.4503 70.5798 31.3845 70.6628 31.3014C70.7458 31.2184 70.8116 31.1199 70.8566 31.0114C70.9015 30.9029 70.9246 30.7867 70.9246 30.6693C70.9246 30.5519 70.9015 30.4356 70.8566 30.3271C70.8116 30.2187 70.7458 30.1201 70.6628 30.0371L66.5098 25.8842H67.4696C68.3875 25.8842 69.2677 25.5196 69.9168 24.8705C70.5658 24.2215 70.9304 23.3413 70.9304 22.4234C70.9304 21.5033 70.5652 20.6208 69.915 19.9697C69.2648 19.3187 68.3828 18.9523 67.4627 18.9511V18.9511ZM69.1354 22.4119C69.1342 22.8576 68.9566 23.2847 68.6414 23.5998C68.3263 23.915 67.8992 24.0926 67.4535 24.0938H53.7004V22.4788C53.7004 22.0168 53.8839 21.5737 54.2106 21.247C54.5372 20.9204 54.9803 20.7368 55.4423 20.7368H67.4535C67.8992 20.7381 68.3263 20.9157 68.6414 21.2308C68.9566 21.546 69.1342 21.9731 69.1354 22.4188V22.4119Z" fill="#F57040"/>
<path d="M64.9235 0.0325077H64.3421C64.288 0.022699 64.2332 0.0172978 64.1782 0.0163574H54.3012C54.2447 0.0169349 54.1883 0.022338 54.1328 0.0325077H52.8338C51.916 0.0325077 51.0357 0.397124 50.3867 1.04615C49.7377 1.69517 49.373 2.57543 49.373 3.49328V3.49328C49.3742 3.64762 49.3849 3.80173 49.4053 3.95472C49.3851 4.02999 49.3742 4.10749 49.373 4.18544V11.6976C49.3847 11.9269 49.484 12.1429 49.6504 12.3011C49.8167 12.4592 50.0375 12.5474 50.2671 12.5474C50.4966 12.5474 50.7174 12.4592 50.8838 12.3011C51.0502 12.1429 51.1495 11.9269 51.1611 11.6976V6.95637H61.435L66.8592 12.3829C66.9422 12.4659 67.0408 12.5317 67.1492 12.5767C67.2577 12.6216 67.374 12.6447 67.4914 12.6447C67.6088 12.6447 67.725 12.6216 67.8335 12.5767C67.942 12.5317 68.0405 12.4659 68.1235 12.3829C68.2066 12.2998 68.2724 12.2013 68.3173 12.0928C68.3623 11.9844 68.3854 11.8681 68.3854 11.7507C68.3854 11.6333 68.3623 11.517 68.3173 11.4086C68.2724 11.3001 68.2066 11.2015 68.1235 11.1185L63.9706 6.9656H64.9304C65.8482 6.9656 66.7285 6.60098 67.3775 5.95196C68.0265 5.30294 68.3912 4.42267 68.3912 3.50482C68.3927 3.04879 68.3041 2.59696 68.1304 2.17529C67.9567 1.75363 67.7014 1.37044 67.3792 1.04777C67.0569 0.725089 66.6741 0.469283 66.2526 0.29505C65.8312 0.120817 65.3795 0.0315931 64.9235 0.0325077ZM66.5962 3.49328C66.595 3.93899 66.4174 4.36609 66.1022 4.68125C65.787 4.99641 65.3599 5.174 64.9142 5.17522H51.1611V3.56019C51.1611 3.09821 51.3446 2.65514 51.6713 2.32847C51.998 2.00179 52.4411 1.81827 52.903 1.81827H64.9142C65.3599 1.81949 65.787 1.99708 66.1022 2.31224C66.4174 2.6274 66.595 3.0545 66.5962 3.50021V3.49328Z" fill="#F57040"/>
<path d="M75.8796 12.7293C76.1162 12.7286 76.3429 12.6344 76.5103 12.4671C76.6776 12.2998 76.7718 12.073 76.7724 11.8364V1.08029C76.7608 0.851028 76.6615 0.635007 76.4951 0.47686C76.3287 0.318714 76.108 0.23053 75.8784 0.23053C75.6489 0.23053 75.4281 0.318714 75.2617 0.47686C75.0953 0.635007 74.996 0.851028 74.9844 1.08029V11.8364C74.9856 12.0732 75.0804 12.3 75.2481 12.4672C75.4157 12.6345 75.6427 12.7287 75.8796 12.7293V12.7293Z" fill="#F57040"/>
<path d="M81.8519 18.9349H76.6815C76.476 18.9355 76.2792 19.0174 76.134 19.1627C75.9887 19.3079 75.9069 19.5047 75.9062 19.7102V30.5931C75.9069 30.8298 76.0011 31.0565 76.1684 31.2238C76.3358 31.3911 76.5625 31.4854 76.7991 31.486H81.8519C83.5082 31.4812 85.0954 30.8212 86.2668 29.6502C87.4383 28.4791 88.0989 26.8922 88.1043 25.2359V25.1874C88.0995 23.5306 87.4392 21.9431 86.2676 20.7716C85.0961 19.6001 83.5086 18.9398 81.8519 18.9349V18.9349ZM85.901 25.4389C85.8979 26.5524 85.4544 27.6196 84.6672 28.4072C83.88 29.1948 82.8131 29.6389 81.6996 29.6426H78.308C78.1535 29.6402 78.0054 29.5802 77.8927 29.4744C77.7801 29.3685 77.711 29.2245 77.6989 29.0704V21.1867C77.7136 21.0603 77.774 20.9435 77.8688 20.8585C77.9635 20.7735 78.0861 20.7262 78.2134 20.7253H81.7111C82.8219 20.7302 83.8858 21.1732 84.6717 21.9582C85.4576 22.7432 85.9018 23.8067 85.9079 24.9175L85.901 25.4389Z" fill="#F57040"/>
<path d="M104.546 12.6436C106.219 12.6387 107.822 11.9718 109.005 10.7887C110.189 9.60546 110.855 8.0021 110.86 6.32882C110.855 4.65594 110.188 3.05317 109.005 1.87047C107.821 0.687778 106.218 0.0212283 104.546 0.0163618L88.0722 0.0163574C86.3995 0.0212269 84.7968 0.687851 83.614 1.87061C82.4313 3.05337 81.7646 4.65614 81.7598 6.32881C81.7646 8.0017 82.4312 9.60471 83.6139 10.7878C84.7966 11.971 86.3993 12.6381 88.0722 12.6436L104.546 12.6436ZM83.8293 6.3888C83.8324 5.20509 84.3039 4.07074 85.1409 3.23372C85.978 2.39671 87.1123 1.92514 88.296 1.92209L104.359 1.9221C105.542 1.92514 106.677 2.39672 107.514 3.23373C108.351 4.07074 108.822 5.2051 108.825 6.38881C108.822 7.57233 108.35 8.70633 107.513 9.54321C106.676 10.3801 105.542 10.8519 104.359 10.8555L88.296 10.8555C87.1125 10.8519 85.9785 10.3801 85.1416 9.54321C84.3047 8.70633 83.833 7.57232 83.8293 6.3888Z" fill="#F57040"/>
<path d="M95.3393 20.7644H110.105C110.342 20.7638 110.569 20.6696 110.737 20.5023C110.904 20.3351 110.999 20.1083 111 19.8715C110.999 19.6345 110.905 19.4075 110.737 19.2399C110.569 19.0722 110.342 18.9775 110.105 18.9763H105.389C105.23 18.9458 105.069 18.9303 104.907 18.9302H94.4487C93.7658 18.932 93.1114 19.2041 92.6284 19.687C92.1455 20.1699 91.8734 20.8244 91.8716 21.5073V23.3207C91.8726 23.9836 92.1286 24.6207 92.5864 25.1C93.0443 25.5793 93.6689 25.8642 94.3311 25.8956H107.413C107.857 25.8968 108.284 26.0738 108.598 26.388C108.913 26.7023 109.091 27.1282 109.092 27.5729V28.0759C109.091 28.5205 108.913 28.9465 108.598 29.2607C108.284 29.5749 107.857 29.752 107.413 29.7532H94.2042C94.158 29.7532 94.1096 29.7532 94.0634 29.7532H92.7668C92.6456 29.747 92.5243 29.7656 92.4105 29.8077C92.2967 29.8499 92.1926 29.9147 92.1046 29.9984C92.0167 30.082 91.9466 30.1826 91.8987 30.2942C91.8509 30.4057 91.8262 30.5258 91.8262 30.6472C91.8262 30.7686 91.8509 30.8887 91.8987 31.0003C91.9466 31.1118 92.0167 31.2124 92.1046 31.2961C92.1926 31.3797 92.2967 31.4445 92.4105 31.4867C92.5243 31.5288 92.6456 31.5474 92.7668 31.5412H108.308C108.991 31.5394 109.645 31.2673 110.128 30.7844C110.611 30.3015 110.883 29.6471 110.885 28.9641V26.7031C110.883 26.0205 110.61 25.3667 110.127 24.8843C109.645 24.4019 108.991 24.1301 108.308 24.1283H95.3393C94.8938 24.1283 94.4666 23.9513 94.1516 23.6363C93.8366 23.3213 93.6597 22.8941 93.6597 22.4486C93.6597 22.0032 93.8366 21.5759 94.1516 21.261C94.4666 20.946 94.8938 20.769 95.3393 20.769V20.7644Z" fill="#F57040"/>
<path d="M6.25708 1.77655H14.4176C14.6538 1.77655 14.8805 1.68319 15.0482 1.5168C15.2158 1.35042 15.311 1.1245 15.3128 0.888281C15.311 0.652064 15.2158 0.426144 15.0482 0.259758C14.8805 0.093372 14.6538 8.57417e-06 14.4176 1.56354e-05L6.28708 1.56354e-05C4.62848 -0.00368485 3.03592 0.649604 1.85772 1.81699C0.679525 2.98438 0.0115859 4.57085 0 6.22941C0.0115759 7.88597 0.677927 9.4707 1.85363 10.6378C3.02934 11.8048 4.61894 12.4595 6.27554 12.4588L14.4176 12.4588C14.6532 12.4588 14.8791 12.3652 15.0457 12.1986C15.2123 12.0321 15.3059 11.8061 15.3059 11.5705C15.3059 11.335 15.2123 11.109 15.0457 10.9424C14.8791 10.7759 14.6532 10.6823 14.4176 10.6823L6.25708 10.6823C5.66303 10.6958 5.07227 10.5905 4.5195 10.3725C3.96673 10.1545 3.46309 9.82821 3.03817 9.41285C2.61326 8.99749 2.27563 8.5014 2.04512 7.95373C1.81461 7.40606 1.69587 6.81785 1.69587 6.22364C1.69587 5.62944 1.81461 5.04123 2.04512 4.49356C2.27563 3.94588 2.61326 3.4498 3.03817 3.03444C3.46309 2.61908 3.96673 2.29282 4.5195 2.07483C5.07227 1.85683 5.66303 1.7515 6.25708 1.76501V1.77655Z" fill="#F57040"/>
<path d="M6.22745 20.7649L23.1068 20.7648C23.3424 20.7648 23.5683 20.6712 23.7349 20.5046C23.9015 20.3381 23.9951 20.1121 23.9951 19.8765C23.9951 19.641 23.9015 19.415 23.7349 19.2484C23.5683 19.0819 23.3424 18.9883 23.1068 18.9883L6.24591 18.9884C4.59224 18.9884 3.0063 19.6453 1.83698 20.8146C0.667659 21.9839 0.0107422 23.5699 0.0107422 25.2235C0.0107422 26.8772 0.667659 28.4631 1.83698 29.6325C3.0063 30.8018 4.59224 31.4587 6.24591 31.4587L23.1068 31.4586C23.3424 31.4586 23.5683 31.365 23.7349 31.1984C23.9015 31.0319 23.9951 30.8059 23.9951 30.5703C23.9951 30.3348 23.9015 30.1088 23.7349 29.9422C23.5683 29.7757 23.3424 29.6821 23.1068 29.6821L6.22745 29.6822C5.6334 29.6957 5.04264 29.5903 4.48987 29.3723C3.93709 29.1544 3.43346 28.8281 3.00854 28.4127C2.58362 27.9974 2.24599 27.5013 2.01548 26.9536C1.78497 26.4059 1.66623 25.8177 1.66623 25.2235C1.66623 24.6293 1.78497 24.0411 2.01548 23.4934C2.24599 22.9458 2.58362 22.4497 3.00854 22.0343C3.43346 21.619 3.93709 21.2927 4.48987 21.0747C5.04264 20.8567 5.6334 20.7514 6.22745 20.7649Z" fill="#F57040"/>
</svg>
